<?xml version="1.0" encoding="UTF-8"?><!DOCTYPE svg PUBLIC "-//W3C//DTD SVG 1.1//EN" "http://www.w3.org/Graphics/SVG/1.1/DTD/svg11.dtd"><svg xmlns="http://www.w3.org/2000/svg"><symbol id="icon-facebook" viewBox="0 0 10 19">
    <title>
        facebook
    </title>
    <path d="M9.766.157v2.946H8.014c-.64 0-1.071.134-1.295.402-.223.268-.335.67-.335 1.205v2.11h3.27l-.435 3.303H6.384v8.471H2.97v-8.47H.123V6.82H2.97V4.387c0-1.384.387-2.457 1.161-3.22C4.904.404 5.934.023 7.222.023c1.093 0 1.941.045 2.544.134z" fill-rule="evenodd"/>
</symbol><symbol id="icon-logo" viewBox="0 0 40 40">
    <path d="M38.9 13c.5 0 1-.4 1-1V5.7c0-3.1-2.5-5.7-5.7-5.7H5.6C2.4 0-.1 2.6-.1 5.7v28.7c0 3.1 2.5 5.7 5.7 5.7h28.7c3.1 0 5.7-2.5 5.7-5.7V20.6c0-.6-.5-1-1-1s-1 .4-1 1v12.8H2V5.7C2 3.7 3.7 2 5.7 2h28.7c2 0 3.7 1.6 3.7 3.7V12c-.2.6.2 1 .8 1zm-1.2 22.3c-.4 1.5-1.9 2.7-3.5 2.7H5.6c-1.7 0-3.1-1.1-3.5-2.7h35.6z"/>
    <path d="M24 28.3c-.3 0-.5-.1-.7-.3L10.5 15.3l-5 4.5c-.4.4-1 .3-1.4-.1-.4-.4-.3-1 .1-1.4l5.7-5.1c.4-.4 1-.3 1.4 0l13.5 13.5c.4.4.4 1 0 1.4-.2.1-.5.2-.8.2z"/>
    <path d="M35 25.4c-.3 0-.5-.1-.7-.3L27.2 18l-4 3.3c-.4.4-1.1.3-1.4-.1-.4-.4-.3-1.1.1-1.4l4.7-3.9c.4-.3 1-.3 1.4.1l7.8 7.8c.4.4.4 1 0 1.4-.3.1-.6.2-.8.2z"/>
    <path d="M23 14c-2.8 0-5-2.2-5-5s2.2-5 5-5 5 2.2 5 5-2.2 5-5 5zm0-8c-1.7 0-3 1.3-3 3s1.3 3 3 3 3-1.3 3-3-1.3-3-3-3z"/>
</symbol></svg>